<svg width="698" height="194" viewBox="0 0 698 194" fill="none" xmlns="http://www.w3.org/2000/svg">
<g clip-path="url(#clip0)">
<path d="M161 96.5C161 52.0411 124.959 16 80.5 16C36.0411 16 0 52.0411 0 96.5C0 140.959 36.0411 177 80.5 177C124.959 177 161 140.959 161 96.5Z" fill="#475569"/>
<path d="M146 96.5C146 60.3253 116.675 31 80.5 31C44.3253 31 15 60.3253 15 96.5C15 132.675 44.3253 162 80.5 162C116.675 162 146 132.675 146 96.5Z" fill="#CFD8E3"/>
<path d="M146 96.5C146 60.3253 116.675 31 80.5 31C44.3253 31 15 60.3253 15 96.5C15 132.675 44.3253 162 80.5 162C116.675 162 146 132.675 146 96.5Z" fill="#97A6BA"/>
<mask id="mask0" mask-type="alpha" maskUnits="userSpaceOnUse" x="20" y="37" width="120" height="120">
<path d="M135 97C135 66.6243 110.376 42 80 42C49.6243 42 25 66.6243 25 97C25 127.376 49.6243 152 80 152C110.376 152 135 127.376 135 97Z" stroke="black" stroke-width="10"/>
</mask>
<g mask="url(#mask0)">
<path d="M68 44.2C68 21.1366 49.3034 2.44001 26.24 2.44001C3.17657 2.44001 -15.52 21.1366 -15.52 44.2C-15.52 67.2634 -0.663433 84.04 22.4 84.04C45.4634 84.04 68 67.2634 68 44.2Z" fill="#F1F5F9"/>
<path d="M31.3011 85.9857C32.5143 82.7601 31.2447 79.2978 28.4655 78.2526C25.6862 77.2073 22.4498 78.9749 21.2366 82.2006C20.0235 85.4263 21.2931 88.8885 24.0723 89.9338C26.8515 90.979 30.088 89.2114 31.3011 85.9857Z" fill="#F1F5F9"/>
<path d="M67.2071 37.6388C63.779 37.9916 61.2463 40.672 61.5503 43.6257C61.8543 46.5794 64.8798 48.6879 68.3079 48.3351C71.7361 47.9823 74.2687 45.3018 73.9647 42.3481C73.6608 39.3944 70.6353 37.286 67.2071 37.6388Z" fill="#F1F5F9"/>
</g>
<path d="M111 96.5C111 79.6553 97.3447 66 80.5 66C63.6553 66 50 79.6553 50 96.5C50 113.345 63.6553 127 80.5 127C97.3447 127 111 113.345 111 96.5Z" fill="#F1F5F9"/>
<path d="M205.364 155H229.966V113.75H247.92L269.966 155H297.125L272.409 109.773C285.648 104.091 292.977 92.5568 292.977 76.6477C292.977 53.5227 277.693 38.6364 251.273 38.6364H205.364V155ZM229.966 93.9773V58.75H246.557C260.761 58.75 267.636 65.0568 267.636 76.6477C267.636 88.1818 260.761 93.9773 246.67 93.9773H229.966ZM347.935 156.705C374.412 156.705 390.889 138.58 390.889 111.705C390.889 84.6591 374.412 66.5909 347.935 66.5909C321.457 66.5909 304.98 84.6591 304.98 111.705C304.98 138.58 321.457 156.705 347.935 156.705ZM348.048 137.955C335.832 137.955 329.582 126.761 329.582 111.534C329.582 96.3068 335.832 85.0568 348.048 85.0568C360.037 85.0568 366.287 96.3068 366.287 111.534C366.287 126.761 360.037 137.955 348.048 137.955ZM462.594 117.841C462.651 129.545 454.639 135.682 445.946 135.682C436.798 135.682 430.889 129.261 430.832 118.977V67.7273H406.628V123.295C406.685 143.693 418.616 156.136 436.173 156.136C449.298 156.136 458.73 149.375 462.651 139.148H463.56V155H486.798V67.7273H462.594V117.841ZM530.364 104.545C530.42 93.2955 537.125 86.7045 546.898 86.7045C556.614 86.7045 562.466 93.0682 562.409 103.75V155H586.614V99.4318C586.614 79.0909 574.682 66.5909 556.5 66.5909C543.545 66.5909 534.17 72.9545 530.25 83.125H529.227V67.7273H506.159V155H530.364V104.545ZM637.849 156.42C651.94 156.42 659.27 148.295 662.622 141.023H663.645V155H687.509V38.6364H663.361V82.3864H662.622C659.384 75.2841 652.395 66.5909 637.793 66.5909C618.645 66.5909 602.452 81.4773 602.452 111.477C602.452 140.682 617.963 156.42 637.849 156.42ZM645.52 137.159C633.645 137.159 627.168 126.591 627.168 111.364C627.168 96.25 633.531 85.8523 645.52 85.8523C657.281 85.8523 663.872 95.7955 663.872 111.364C663.872 126.932 657.168 137.159 645.52 137.159Z" fill="#F1F5F9"/>
</g>
<defs>
<clipPath id="clip0">
<rect width="698" height="194" fill="white"/>
</clipPath>
</defs>
</svg>
