<svg width="200" height="200" viewBox="0 0 200 200" fill="none" xmlns="http://www.w3.org/2000/svg">
<path d="M129.832 105.55L162.232 61.15H108.832V55.6H169.132V61.15L145.282 93.6999C150.582 94.6999 155.332 96.7999 159.532 99.9999C163.832 103.2 167.182 107.2 169.582 112C172.082 116.8 173.332 121.95 173.332 127.45C173.332 133.65 171.782 139.4 168.682 144.7C165.582 150 161.382 154.2 156.082 157.3C150.882 160.4 145.182 161.95 138.982 161.95C132.782 161.95 127.032 160.4 121.732 157.3C116.532 154.2 112.382 150 109.282 144.7C106.182 139.4 104.632 133.65 104.632 127.45H110.032C110.032 132.65 111.332 137.5 113.932 142C116.532 146.4 120.032 149.9 124.432 152.5C128.932 155.1 133.782 156.4 138.982 156.4C144.182 156.4 148.982 155.1 153.382 152.5C157.882 149.9 161.432 146.4 164.032 142C166.632 137.5 167.932 132.65 167.932 127.45C167.932 122.55 166.732 118 164.332 113.8C162.032 109.6 158.832 106.15 154.732 103.45C150.732 100.75 146.332 99.1999 141.532 98.7999L134.332 108.7L129.832 105.55Z" fill="black" fill-opacity="0.6"/>
<path d="M103.132 55.6V61.15H63.6824V160H58.2824V61.15H18.8324V55.6H103.132Z" fill="black" fill-opacity="0.6"/>
</svg>
