<svg width="248" height="193" viewBox="0 0 248 193" fill="none" xmlns="http://www.w3.org/2000/svg">
<path d="M165.533 19.0763L183.41 0.516602H0.597019V19.0763H165.533Z" fill="black"/>
<path d="M162.036 89.308L247.462 1.87779L222.334 1.87764L147.915 77.341L162.036 89.308Z" fill="black"/>
<path d="M136.367 135.796L121.602 150.561L122.644 153.039C132.35 176.132 155.186 192.36 181.822 192.36C217.261 192.36 245.989 163.632 245.989 128.193C245.989 104.751 233.198 84.4248 214.532 73.241L211.837 71.6264L198.316 85.32L203.08 87.8347C217.567 95.4827 227.427 110.69 227.427 128.193C227.427 153.38 207.009 173.798 181.822 173.798C161.474 173.798 144.229 160.469 138.362 142.055L136.367 135.796Z" fill="black"/>
<path d="M84.493 192.36L84.4929 45.19H65.9333L65.9333 192.36H84.493Z" fill="black"/>
</svg>
