<?xml version="1.0" encoding="UTF-8" standalone="no"?>
<!DOCTYPE svg PUBLIC "-//W3C//DTD SVG 1.1//EN" "http://www.w3.org/Graphics/SVG/1.1/DTD/svg11.dtd">
<svg width="100%" height="100%" viewBox="0 0 300 300" version="1.1" xmlns="http://www.w3.org/2000/svg" xmlns:xlink="http://www.w3.org/1999/xlink" xml:space="preserve" xmlns:serif="http://www.serif.com/" style="fill-rule:evenodd;clip-rule:evenodd;stroke-linejoin:round;stroke-miterlimit:2;">
    <g transform="matrix(7.82821,0,0,7.82821,6.69359,24.6057)">
        <path d="M36.6,17.586C36.229,8.38 28.599,0.873 19.171,0.448C8.662,-0.016 0,8.151 0,18.294C0,22.165 1.258,25.745 3.403,28.664C4.637,30.348 6.565,31.411 8.654,31.584C5.581,28.184 8.194,25.344 8.194,25.344C6.976,25.918 6.476,27.854 6.476,27.854C4.17,26.469 4.702,24.817 4.702,24.817C4.847,24.471 5.178,23.518 6.952,23.865C10.388,12.825 21.703,18.577 21.703,18.577C21.526,18.231 20.937,16.264 20.937,16.264C13.59,15.225 11.106,10.142 11.106,10.142C17.921,8.12 22.066,13.612 22.066,13.612C20.171,9.103 15.614,10.898 14.429,3.501C22.341,4.784 23.486,10.835 23.647,12.141C23.76,11.889 24.389,11.551 26.986,11.7C31.011,11.928 34.212,15.918 34.212,15.918C34.212,24.006 24.083,22.055 24.083,28.169C24.083,29.601 25.679,29.514 26.212,30.207C26.647,30.773 26.462,31.403 26.373,31.607L27.333,31.607C29.607,31.607 31.769,30.584 33.107,28.79C35.438,25.667 36.761,21.78 36.6,17.578L36.6,17.586Z" style="fill-rule:nonzero;"/>
    </g>
</svg>
