<?xml version="1.0" encoding="UTF-8" standalone="no"?>
<!DOCTYPE svg PUBLIC "-//W3C//DTD SVG 1.1//EN" "http://www.w3.org/Graphics/SVG/1.1/DTD/svg11.dtd">
<svg width="100%" height="100%" viewBox="0 0 300 300" version="1.1" xmlns="http://www.w3.org/2000/svg" xmlns:xlink="http://www.w3.org/1999/xlink" xml:space="preserve" xmlns:serif="http://www.serif.com/" style="fill-rule:evenodd;clip-rule:evenodd;stroke-linejoin:round;stroke-miterlimit:2;">
    <g transform="matrix(8.06637,0,0,8.06637,-423.122,-874.926)">
        <g transform="matrix(1,0,0,1,53.5736,109.562)">
            <path d="M18.179,13.445C17.875,13.55 17.669,13.838 17.669,14.16C17.669,14.576 18.011,14.918 18.427,14.918C18.842,14.918 19.184,14.576 19.184,14.16C19.184,14.084 19.173,14.007 19.15,13.934C19.051,13.621 18.759,13.407 18.431,13.407C18.351,13.407 18.272,13.42 18.196,13.445" style="fill-rule:nonzero;"/>
        </g>
        <g transform="matrix(1,0,0,1,53.5736,109.562)">
            <path d="M17.477,0.023C7.889,0.023 0,7.912 0,17.5C0,27.088 7.889,34.977 17.477,34.977C27.065,34.977 34.954,27.088 34.954,17.5C34.954,7.912 27.065,0.023 17.477,0.023M27.609,6.934C27.574,7.051 27.51,7.158 27.422,7.244C27.103,7.615 23.631,11.5 22.337,12.802C22.899,14.253 22.899,16.73 22.699,19.134C22.418,22.538 21.971,23.883 20.145,24.922C18.32,25.96 13.234,26.1 10.707,25.479C8.179,24.858 7.864,22.326 7.622,22.219C6.634,21.794 6.77,20.241 6.77,20.241C7.464,20.206 8.158,21.092 8.158,21.092C8.464,20.733 8.843,20.443 9.268,20.241C9.647,21.594 8.843,22.045 8.919,22.219C9.119,22.717 10.196,23.921 11.898,23.07C13.6,22.219 13.664,19.849 13.771,16.934C13.877,14.019 14.622,11.7 17.132,11.147C18.447,10.822 19.833,10.946 21.069,11.5C22.771,10.223 26.72,7.427 27.069,7.185C27.183,7.099 27.305,7.027 27.435,6.968L27.618,6.968L27.609,6.934Z" style="fill-rule:nonzero;"/>
        </g>
    </g>
</svg>
