<svg xmlns="http://www.w3.org/2000/svg" width="300" height="300" viewBox="0 0 300 300" fill="none">
<mask id="mask0_200_68" style="mask-type:alpha" maskUnits="userSpaceOnUse" x="49" y="60" width="203" height="180">
<path d="M150.134 240C148.112 240 146.074 239.634 144.023 238.902C141.974 238.172 140.19 237.048 138.673 235.531L123.923 221.956C104.033 203.577 86.5739 185.83 71.5453 168.715C56.5151 151.601 49 133.404 49 114.126C49 98.7264 54.1688 85.855 64.5064 75.512C74.8457 65.1707 87.656 60 102.937 60C111.647 60 120.131 62.0091 128.39 66.0272C136.65 70.0471 143.898 76.3003 150.134 84.7868C156.932 76.3003 164.292 70.0471 172.214 66.0272C180.136 62.0091 188.509 60 197.331 60C212.612 60 225.423 65.1707 235.762 75.512C246.1 85.855 251.268 98.7264 251.268 114.126C251.268 133.404 243.768 151.615 228.766 168.758C213.764 185.902 196.262 203.663 176.26 222.042L161.595 235.531C160.078 237.048 158.295 238.172 156.245 238.902C154.194 239.634 152.157 240 150.134 240Z" fill="white"/>
</mask>
<g mask="url(#mask0_200_68)">
<path d="M150.134 240C148.112 240 146.074 239.634 144.023 238.902C141.974 238.172 140.19 237.048 138.673 235.531L123.923 221.956C104.033 203.577 86.5739 185.83 71.5453 168.715C56.5151 151.601 49 133.404 49 114.126C49 98.7264 54.1688 85.855 64.5064 75.512C74.8457 65.1707 87.656 60 102.937 60C111.647 60 120.131 62.0091 128.39 66.0272C136.65 70.0471 143.898 76.3003 150.134 84.7868C156.932 76.3003 164.292 70.0471 172.214 66.0272C180.136 62.0091 188.509 60 197.331 60C212.612 60 225.423 65.1707 235.762 75.512C246.1 85.855 251.268 98.7264 251.268 114.126C251.268 133.404 243.768 151.615 228.766 168.758C213.764 185.902 196.262 203.663 176.26 222.042L161.595 235.531C160.078 237.048 158.295 238.172 156.245 238.902C154.194 239.634 152.157 240 150.134 240Z" fill="#FF1814"/>
<g filter="url(#filter0_f_200_68)">
<ellipse cx="76.4982" cy="77.474" rx="76.4982" ry="77.474" transform="matrix(-0.258732 -0.965949 0.965903 -0.258906 123.355 373.747)" fill="#FFAB25"/>
</g>
<g filter="url(#filter1_f_200_68)">
<ellipse cx="76.4982" cy="77.474" rx="76.4982" ry="77.474" transform="matrix(-0.258732 -0.965949 0.965903 -0.258906 171.633 360.806)" fill="#FFAB25"/>
</g>
<g filter="url(#filter2_f_200_68)">
<ellipse cx="76.4982" cy="77.474" rx="76.4982" ry="77.474" transform="matrix(-0.258732 -0.965949 0.965903 -0.258906 49.203 290.095)" fill="#FFAB25"/>
</g>
<g filter="url(#filter3_f_200_68)">
<ellipse cx="76.4982" cy="77.474" rx="76.4982" ry="77.474" transform="matrix(-0.258732 -0.965949 0.965903 -0.258906 97.4818 277.154)" fill="#FFAB25"/>
</g>
<g filter="url(#filter4_f_200_68)">
<ellipse cx="85.6703" cy="85.701" rx="85.6703" ry="85.701" transform="matrix(0.999134 0.0416031 -0.0415733 0.999135 -103.817 9)" fill="#BE2B29"/>
</g>
<g filter="url(#filter5_f_200_68)">
<ellipse cx="64.4206" cy="55.7308" rx="64.4206" ry="55.7308" transform="matrix(-0.670258 -0.742128 0.730719 -0.682679 212.044 156.668)" fill="#00C986"/>
</g>
<g style="mix-blend-mode:hard-light" filter="url(#filter6_f_200_68)">
<ellipse cx="72.6207" cy="62.7816" rx="72.6207" ry="62.7816" transform="matrix(-0.670258 -0.742128 0.730719 -0.682679 251.157 211.008)" fill="#297FFF"/>
</g>
</g>







<defs>
<filter id="filter0_f_200_68" x="28.9698" y="131.208" width="298.849" height="297.173" filterUnits="userSpaceOnUse" color-interpolation-filters="sRGB">
<feFlood flood-opacity="0" result="BackgroundImageFix"/>
<feBlend mode="normal" in="SourceGraphic" in2="BackgroundImageFix" result="shape"/>
<feGaussianBlur stdDeviation="36" result="effect1_foregroundBlur_200_68"/>
</filter>
<filter id="filter1_f_200_68" x="77.2486" y="118.267" width="298.849" height="297.173" filterUnits="userSpaceOnUse" color-interpolation-filters="sRGB">
<feFlood flood-opacity="0" result="BackgroundImageFix"/>
<feBlend mode="normal" in="SourceGraphic" in2="BackgroundImageFix" result="shape"/>
<feGaussianBlur stdDeviation="36" result="effect1_foregroundBlur_200_68"/>
</filter>
<filter id="filter2_f_200_68" x="-45.1818" y="47.5566" width="298.849" height="297.173" filterUnits="userSpaceOnUse" color-interpolation-filters="sRGB">
<feFlood flood-opacity="0" result="BackgroundImageFix"/>
<feBlend mode="normal" in="SourceGraphic" in2="BackgroundImageFix" result="shape"/>
<feGaussianBlur stdDeviation="36" result="effect1_foregroundBlur_200_68"/>
</filter>
<filter id="filter3_f_200_68" x="3.097" y="34.6157" width="298.849" height="297.173" filterUnits="userSpaceOnUse" color-interpolation-filters="sRGB">
<feFlood flood-opacity="0" result="BackgroundImageFix"/>
<feBlend mode="normal" in="SourceGraphic" in2="BackgroundImageFix" result="shape"/>
<feGaussianBlur stdDeviation="36" result="effect1_foregroundBlur_200_68"/>
</filter>
<filter id="filter4_f_200_68" x="-235.455" y="-115.511" width="427.343" height="427.405" filterUnits="userSpaceOnUse" color-interpolation-filters="sRGB">
<feFlood flood-opacity="0" result="BackgroundImageFix"/>
<feBlend mode="normal" in="SourceGraphic" in2="BackgroundImageFix" result="shape"/>
<feGaussianBlur stdDeviation="64" result="effect1_foregroundBlur_200_68"/>
</filter>
<filter id="filter5_f_200_68" x="78.2359" y="-62.289" width="262.706" height="266.204" filterUnits="userSpaceOnUse" color-interpolation-filters="sRGB">
<feFlood flood-opacity="0" result="BackgroundImageFix"/>
<feBlend mode="normal" in="SourceGraphic" in2="BackgroundImageFix" result="shape"/>
<feGaussianBlur stdDeviation="36" result="effect1_foregroundBlur_200_68"/>
</filter>
<filter id="filter6_f_200_68" x="109.471" y="-26.6069" width="277.773" height="281.722" filterUnits="userSpaceOnUse" color-interpolation-filters="sRGB">
<feFlood flood-opacity="0" result="BackgroundImageFix"/>
<feBlend mode="normal" in="SourceGraphic" in2="BackgroundImageFix" result="shape"/>
<feGaussianBlur stdDeviation="36" result="effect1_foregroundBlur_200_68"/>
</filter>
</defs>
</svg>