<svg width="100%" height="100%" viewBox="0 0 300 300" version="1.1" xmlns="http://www.w3.org/2000/svg" xmlns:xlink="http://www.w3.org/1999/xlink" xml:space="preserve" xmlns:serif="http://www.serif.com/" style="fill-rule:evenodd;clip-rule:evenodd;stroke-linejoin:round;stroke-miterlimit:2;">
    <g transform="matrix(1.47917,0,0,1.47917,6.66727,12.4375)">
        <path d="M33.901,0C15.676,0 0.901,14.775 0.901,33L0.901,153C0.901,171.225 15.676,186 33.901,186L159.901,186C178.127,186 192.901,171.225 192.901,153L192.901,33C192.901,14.775 178.127,0 159.901,0L33.901,0ZM116,41L73,41L73,64L51,64L51,81.721C51,84.453 52.119,87.069 54.095,88.955L73,107L51,107L51,129L73,129L73,152L116,152L116,129L138,129L138,111.279C138,108.547 136.881,105.931 134.905,104.045L116,86L138,86L138,64L116,64L116,41ZM116,64L116,86L83,86C77.477,86 73,81.523 73,76L73,64L116,64ZM116,129L73,129L73,107L106,107C111.523,107 116,111.477 116,117L116,129Z" style="fill:rgb(249,115,21);"/>
    </g>
</svg>
