<svg width="100%" height="100%" viewBox="0 0 300 300" version="1.1" xmlns="http://www.w3.org/2000/svg" xmlns:xlink="http://www.w3.org/1999/xlink" xml:space="preserve" xmlns:serif="http://www.serif.com/" style="fill-rule:evenodd;clip-rule:evenodd;stroke-linejoin:round;stroke-miterlimit:2;">
    <g transform="matrix(1,0,0,1,4.42784,-13.1947)">
        <g transform="matrix(2.26589,0,0,2.26589,2.37535,20.6897)">
            <path d="M105.917,57.655C105.657,58.561 105.368,59.458 105.053,60.338C104.722,61.265 104.366,62.175 103.976,63.072L90.932,62.8C90.932,63.064 90.932,63.324 90.924,63.588L126.378,64.33C126.424,62.238 126.369,60.15 126.206,58.078L105.913,57.655L105.917,57.655Z" style="fill-rule:nonzero;stroke:black;stroke-width:0.44px;"/>
        </g>
        <g transform="matrix(2.26589,0,0,2.26589,2.37535,20.6897)">
            <path d="M78.547,1.593L78.19,2.478C80.157,3.216 82.06,4.092 83.892,5.086L71.276,36.36C72.044,36.595 72.811,36.867 73.57,37.173C73.608,37.19 73.645,37.203 73.679,37.219L86.941,4.34C86.903,4.323 86.865,4.31 86.832,4.293C84.098,3.191 81.331,2.293 78.547,1.593Z" style="fill-rule:nonzero;stroke:black;stroke-width:0.44px;"/>
        </g>
        <g transform="matrix(2.26589,0,0,2.26589,2.37535,20.6897)">
            <path d="M91.23,10.059C92.81,11.371 94.303,12.788 95.695,14.302L77.695,39.249C78.324,39.634 78.936,40.041 79.523,40.469L100.274,11.715C98.047,10.105 95.695,8.625 93.225,7.295L91.23,10.063L91.23,10.059Z" style="fill-rule:nonzero;stroke:black;stroke-width:0.44px;"/>
        </g>
        <g transform="matrix(2.26589,0,0,2.26589,2.37535,20.6897)">
            <path d="M100.756,20.935C101.829,22.645 102.789,24.431 103.632,26.285L83.18,43.655C83.607,44.1 84.018,44.557 84.416,45.031L111.443,22.075C109.77,20.096 107.971,18.214 106.051,16.44L100.76,20.935L100.756,20.935Z" style="fill-rule:nonzero;stroke:black;stroke-width:0.44px;"/>
        </g>
        <g transform="matrix(2.26589,0,0,2.26589,2.37535,20.6897)">
            <path d="M116.194,28.482L106.185,33.471C106.688,35.387 107.07,37.353 107.322,39.362L87.372,49.307C87.616,49.743 87.85,50.183 88.068,50.628L119.795,34.813C118.718,32.637 117.514,30.523 116.189,28.482L116.194,28.482Z" style="fill-rule:nonzero;stroke:black;stroke-width:0.44px;"/>
        </g>
        <g transform="matrix(2.26589,0,0,2.26589,2.37535,20.6897)">
            <path d="M107.67,46.104C107.628,48.091 107.456,50.053 107.162,51.974L90.014,55.823C90.11,56.192 90.202,56.561 90.282,56.934L124.877,49.169C124.382,46.963 123.774,44.787 123.049,42.649L107.67,46.1L107.67,46.104Z" style="fill-rule:nonzero;stroke:black;stroke-width:0.44px;"/>
        </g>
        <g transform="matrix(2.26589,0,0,2.26589,2.37535,20.6897)">
            <path d="M125.443,73.806L101.8,67.449C100.911,69.013 99.934,70.527 98.873,71.969L90.102,69.613C90.052,69.81 90.001,70.003 89.947,70.2L124.185,79.403C124.692,77.541 125.107,75.676 125.439,73.801L125.443,73.806Z" style="fill-rule:nonzero;stroke:black;stroke-width:0.44px;"/>
        </g>
        <g transform="matrix(2.26589,0,0,2.26589,2.37535,20.6897)">
            <path d="M96.202,75.277C95.121,76.497 93.972,77.659 92.764,78.753L87.666,75.94C87.586,76.091 87.502,76.242 87.418,76.393L118.462,93.52C119.296,92.006 120.076,90.451 120.797,88.849L96.198,75.277L96.202,75.277Z" style="fill-rule:nonzero;stroke:black;stroke-width:0.44px;"/>
        </g>
        <g transform="matrix(2.26589,0,0,2.26589,2.37535,20.6897)">
            <path d="M89.804,81.227C88.638,82.12 87.427,82.954 86.177,83.734L83.766,81.508C83.679,81.608 83.586,81.705 83.494,81.805L109.54,105.868C110.605,104.723 111.628,103.532 112.609,102.3L89.804,81.231L89.804,81.227Z" style="fill-rule:nonzero;stroke:black;stroke-width:0.44px;"/>
        </g>
        <g transform="matrix(2.26589,0,0,2.26589,2.37535,20.6897)">
            <path d="M101.33,113.285L83.016,85.528C82.291,85.902 81.557,86.254 80.811,86.589C80.811,86.589 79.465,87.168 79.159,87.294L97.905,115.7C99.074,114.933 100.215,114.127 101.334,113.285L101.33,113.285Z" style="fill-rule:nonzero;stroke:black;stroke-width:0.44px;"/>
        </g>
        <g transform="matrix(2.26589,0,0,2.26589,2.37535,20.6897)">
            <path d="M76.048,88.409C75.737,88.505 73.771,89.076 73.188,89.218C73.188,89.218 72.639,89.352 72.488,89.386L84.249,122.463C85.406,122.052 86.551,121.612 87.683,121.134L76.048,88.405L76.048,88.409Z" style="fill-rule:nonzero;stroke:black;stroke-width:0.44px;"/>
        </g>
        <g transform="matrix(2.26589,0,0,2.26589,2.37535,20.6897)">
            <path d="M68.979,90.015C67.947,90.237 66.903,90.396 65.847,90.501L69.385,125.783C70.438,125.679 71.486,125.549 72.526,125.394L68.979,90.019L68.979,90.015Z" style="fill-rule:nonzero;stroke:black;stroke-width:0.44px;"/>
        </g>
        <g transform="matrix(2.26589,0,0,2.26589,2.37535,20.6897)">
            <path d="M61.805,90.593C60.924,90.547 60.044,90.463 59.163,90.334L54.153,125.44C55.029,125.565 55.91,125.674 56.786,125.767L61.805,90.598L61.805,90.593Z" style="fill-rule:nonzero;stroke:black;stroke-width:0.44px;"/>
        </g>
        <g transform="matrix(2.26589,0,0,2.26589,2.37535,20.6897)">
            <path d="M20.477,68.129C20.737,67.223 21.026,66.326 21.34,65.445C21.672,64.519 22.028,63.609 22.418,62.712L35.462,62.984C35.462,62.72 35.462,62.46 35.47,62.196L0.016,61.454C-0.03,63.546 0.024,65.634 0.188,67.705L20.481,68.129L20.477,68.129Z" style="fill-rule:nonzero;stroke:black;stroke-width:0.44px;"/>
        </g>
        <g transform="matrix(2.26589,0,0,2.26589,2.37535,20.6897)">
            <path d="M47.851,124.19L48.208,123.305C46.241,122.568 44.338,121.691 42.505,120.698L55.121,89.424C54.354,89.189 53.587,88.916 52.828,88.61C52.79,88.593 52.753,88.581 52.719,88.564L39.457,121.444C39.495,121.461 39.533,121.473 39.566,121.49C42.3,122.593 45.067,123.49 47.851,124.19Z" style="fill-rule:nonzero;stroke:black;stroke-width:0.44px;"/>
        </g>
        <g transform="matrix(2.26589,0,0,2.26589,2.37535,20.6897)">
            <path d="M35.164,115.725C33.583,114.413 32.09,112.995 30.699,111.482L48.698,86.535C48.069,86.149 47.457,85.742 46.87,85.315L26.12,114.069C28.346,115.679 30.699,117.159 33.168,118.488L35.164,115.721L35.164,115.725Z" style="fill-rule:nonzero;stroke:black;stroke-width:0.44px;"/>
        </g>
        <g transform="matrix(2.26589,0,0,2.26589,2.37535,20.6897)">
            <path d="M25.638,104.849C24.565,103.138 23.604,101.352 22.762,99.499L43.214,82.128C42.786,81.684 42.375,81.227 41.977,80.753L14.95,103.708C16.623,105.687 18.422,107.57 20.342,109.344L25.634,104.849L25.638,104.849Z" style="fill-rule:nonzero;stroke:black;stroke-width:0.44px;"/>
        </g>
        <g transform="matrix(2.26589,0,0,2.26589,2.37535,20.6897)">
            <path d="M10.204,97.302L20.212,92.313C19.709,90.396 19.328,88.43 19.076,86.422L39.025,76.476C38.782,76.04 38.547,75.6 38.329,75.156L6.598,90.971C7.676,93.147 8.879,95.26 10.204,97.302Z" style="fill-rule:nonzero;stroke:black;stroke-width:0.44px;"/>
        </g>
        <g transform="matrix(2.26589,0,0,2.26589,2.37535,20.6897)">
            <path d="M18.724,79.68C18.766,77.692 18.938,75.73 19.231,73.81L36.38,69.961C36.283,69.592 36.191,69.223 36.111,68.85L1.517,76.611C2.011,78.816 2.619,80.992 3.345,83.13L18.728,79.68L18.724,79.68Z" style="fill-rule:nonzero;stroke:black;stroke-width:0.44px;"/>
        </g>
        <g transform="matrix(2.26589,0,0,2.26589,2.37535,20.6897)">
            <path d="M0.951,51.978L24.594,58.334C25.483,56.77 26.46,55.257 27.52,53.814L36.292,56.171C36.342,55.974 36.392,55.781 36.447,55.584L2.204,46.376C1.697,48.238 1.282,50.104 0.951,51.978Z" style="fill-rule:nonzero;stroke:black;stroke-width:0.44px;"/>
        </g>
        <g transform="matrix(2.26589,0,0,2.26589,2.37535,20.6897)">
            <path d="M30.191,50.506C31.273,49.286 32.422,48.125 33.629,47.03L38.728,49.844C38.807,49.693 38.891,49.542 38.975,49.391L7.932,32.259C7.097,33.773 6.318,35.328 5.596,36.93L30.195,50.502L30.191,50.506Z" style="fill-rule:nonzero;stroke:black;stroke-width:0.44px;"/>
        </g>
        <g transform="matrix(2.26589,0,0,2.26589,2.37535,20.6897)">
            <path d="M36.594,44.557C37.759,43.664 38.971,42.829 40.22,42.049L42.631,44.276C42.719,44.175 42.812,44.079 42.904,43.978L16.858,19.916C15.793,21.06 14.77,22.251 13.789,23.484L36.594,44.553L36.594,44.557Z" style="fill-rule:nonzero;stroke:black;stroke-width:0.44px;"/>
        </g>
        <g transform="matrix(2.26589,0,0,2.26589,2.37535,20.6897)">
            <path d="M25.068,12.499L43.382,40.255C44.107,39.882 44.841,39.53 45.587,39.194C45.587,39.194 46.933,38.616 47.239,38.49L28.497,10.084C27.328,10.851 26.187,11.656 25.068,12.499Z" style="fill-rule:nonzero;stroke:black;stroke-width:0.44px;"/>
        </g>
        <g transform="matrix(2.26589,0,0,2.26589,2.37535,20.6897)">
            <path d="M50.346,37.375C50.656,37.278 52.623,36.708 53.205,36.565C53.205,36.565 53.755,36.431 53.906,36.398L42.145,3.321C40.988,3.732 39.843,4.172 38.711,4.65L50.346,37.379L50.346,37.375Z" style="fill-rule:nonzero;stroke:black;stroke-width:0.44px;"/>
        </g>
        <g transform="matrix(2.26589,0,0,2.26589,2.37535,20.6897)">
            <path d="M57.415,35.769C58.446,35.546 59.49,35.387 60.547,35.282L57.013,0C55.96,0.105 54.912,0.235 53.872,0.39L57.419,35.764L57.415,35.769Z" style="fill-rule:nonzero;stroke:black;stroke-width:0.44px;"/>
        </g>
        <g transform="matrix(2.26589,0,0,2.26589,2.37535,20.6897)">
            <path d="M64.593,35.19C65.474,35.236 66.354,35.32 67.235,35.45L72.241,0.344C71.364,0.218 70.484,0.109 69.608,0.017L64.589,35.186L64.593,35.19Z" style="fill-rule:nonzero;stroke:black;stroke-width:0.44px;"/>
        </g>
    </g>
</svg>
