<svg width="100%" height="100%" viewBox="0 0 300 300" version="1.1" xmlns="http://www.w3.org/2000/svg" xmlns:xlink="http://www.w3.org/1999/xlink" xml:space="preserve" xmlns:serif="http://www.serif.com/" style="fill-rule:evenodd;clip-rule:evenodd;stroke-linejoin:round;stroke-miterlimit:2;">
    <g transform="matrix(8.42709,0,0,8.42709,19.533,19.5162)">
        <path d="M15.482,24.449C20.432,24.449 24.446,20.436 24.446,15.485C24.446,13.598 23.863,11.848 22.867,10.404L28.693,4.578C29.184,4.086 28.904,3.238 28.221,3.111C27.486,2.973 26.754,2.815 26.026,2.635C24.555,2.271 23.102,1.819 21.674,1.28L21.54,1.23C21.281,1.131 21.024,1.03 20.767,0.925C19.118,0.327 17.339,0 15.483,0C11.211,0 7.343,1.73 4.542,4.528C1.736,7.33 0,11.204 0,15.483C0,17.156 0.265,18.767 0.757,20.277C1.022,21.092 1.977,21.399 2.719,20.971C3.346,20.609 3.599,19.839 3.389,19.145C2.088,14.833 3.142,9.962 6.55,6.554C11.092,2.011 18.233,1.652 23.186,5.475L20.562,8.099C19.118,7.104 17.368,6.521 15.482,6.521C10.531,6.521 6.518,10.535 6.518,15.485C6.518,17.371 7.101,19.121 8.096,20.565L2.271,26.39C1.78,26.881 2.06,27.73 2.743,27.857C3.478,27.994 4.21,28.153 4.937,28.333C6.408,28.697 7.862,29.148 9.29,29.687L9.424,29.738C9.682,29.837 9.94,29.938 10.196,30.043C11.845,30.641 13.625,30.968 15.481,30.968C19.724,30.968 23.568,29.261 26.365,26.496L26.431,26.431C29.232,23.629 30.964,19.759 30.964,15.485C30.964,13.812 30.699,12.202 30.208,10.693C29.943,9.877 28.986,9.569 28.244,9.998C27.616,10.361 27.363,11.131 27.573,11.826C28.873,16.138 27.82,21.008 24.412,24.416C19.87,28.958 12.729,29.318 7.776,25.495L10.4,22.87C11.844,23.866 13.595,24.449 15.482,24.449ZM21.433,15.485C21.433,18.86 18.696,21.596 15.321,21.596C14.267,21.596 13.276,21.33 12.41,20.86L20.696,12.574C21.166,13.44 21.433,14.431 21.433,15.485ZM9.209,15.485C9.209,12.109 11.945,9.373 15.321,9.373C16.459,9.373 17.523,9.684 18.436,10.225L10.061,18.599C9.52,17.687 9.209,16.622 9.209,15.485Z" style="fill:url(#_Radial1);"/>
    </g>
    <defs>
        <radialGradient id="_Radial1" cx="0" cy="0" r="1" gradientUnits="userSpaceOnUse" gradientTransform="matrix(109.579,0,0,64.8805,87.4049,15.4839)"><stop offset="0" style="stop-color:white;stop-opacity:1"/><stop offset="1" style="stop-color:rgb(80,80,80);stop-opacity:1"/></radialGradient>
    </defs>
</svg>
